<?xml version="1.0" standalone="no"?>
<!DOCTYPE svg PUBLIC "-//W3C//DTD SVG 20010904//EN"
 "http://www.w3.org/TR/2001/REC-SVG-20010904/DTD/svg10.dtd">
<svg version="1.0" xmlns="http://www.w3.org/2000/svg"
 width="700.000000pt" height="700.000000pt" viewBox="0 0 700.000000 700.000000"
 preserveAspectRatio="xMidYMid meet">
<g transform="translate(0.000000,700.000000) scale(0.100000,-0.100000)"
fill="#000000" stroke="none">
<path d="M737 6990 c-187 -32 -360 -123 -488 -256 -108 -114 -168 -216 -216
-371 l-28 -88 0 -2775 0 -2775 28 -88 c95 -304 300 -509 604 -604 l88 -28
2775 0 2775 0 88 28 c311 97 528 320 609 627 l23 85 0 2765 0 2765 -28 88
c-48 155 -108 257 -216 371 -106 110 -226 183 -388 233 l-88 28 -2745 1
c-1510 1 -2767 -2 -2793 -6z m1853 -2415 l0 -785 940 0 940 0 0 785 0 785 260
0 260 0 0 -1915 0 -1915 -260 0 -260 0 0 910 0 910 -940 0 -940 0 0 -910 0
-910 -260 0 -260 0 0 1915 0 1915 260 0 260 0 0 -785z"/>
</g>
</svg>
